<?xml version="1.0" encoding="UTF-8"?>
<svg id="Layer_1" data-name="Layer 1" xmlns="http://www.w3.org/2000/svg" version="1.1" viewBox="0 0 512 512">
  <defs>
    <style>
      .cls-1 {
        fill: #fff;
        stroke-width: 0px;
      }
    </style>
  </defs>
  <path class="cls-1" d="M164.3,320.1c-12.5,12.5-32.8,12.5-45.2,0L18.3,219.3c-24.4-24.4-24.4-64,0-88.4L119.1,30.1c13.1-11.9,33.3-10.9,45.2,2.2,11.1,12.2,11.1,30.9,0,43.1l-69,67.6h303.2c62.6,0,113.4,50.8,113.5,113.5v142.5c0,62.6-50.8,113.4-113.5,113.5H113.5c-17.7,0-32-14.3-32-32s14.3-32,32-32h285.1c27.3,0,49.4-22.1,49.5-49.5v-142.5c0-27.3-22.2-49.5-49.5-49.5H96.5l67.8,68c12.5,12.5,12.5,32.8,0,45.2Z"/>
</svg>