<?xml version="1.0" encoding="UTF-8"?>
<svg id="Layer_1" data-name="Layer 1" xmlns="http://www.w3.org/2000/svg" version="1.1" viewBox="0 0 24 24">
  <defs>
    <style>
      .cls-1 {
        fill: #fff;
        stroke-width: 0px;
      }
    </style>
  </defs>
  <path class="cls-1" d="M.5,1.8L1.8.5C2.4,0,3.3-.2,4,.2l3.8,2.2c.7.4,1.2,1.2,1.2,2.1v3.1l4.7,4.7c1.1-.5,2.5-.3,3.4.6l5.9,5.9c1.1,1.1,1.3,2.9.3,4.1-1.1,1.4-3.2,1.5-4.5.2l-6-6c-.9-.9-1.1-2.3-.6-3.4l-4.7-4.7h-3.1c-.8,0-1.6-.5-2.1-1.2L.2,4C-.2,3.3,0,2.4.5,1.8ZM11,4.5v2.3l3.3,3.3c1.5-.2,3.1.3,4.2,1.4l2.2,2.2c1.9-1.3,3.2-3.5,3.2-5.9,0-.8,0-1.6-.3-2.3-.1-.5-1.1-1.2-1.9-.4-.8.8-3.3,3.3-3.3,3.3-.8.8-2.1.8-2.9,0-.8-.8-.8-2.1,0-2.9,0,0,2.5-2.5,3.3-3.3s0-1.8-.4-1.9c-.7-.2-1.5-.3-2.3-.3-2.2,0-4.2,1.2-5.5,2.8.2.5.3,1.1.3,1.7h0ZM10.1,14.3l-2.3-2.3L.9,18.9c-1.2,1.2-1.2,3.1,0,4.2,1.2,1.1,3.1,1.2,4.2,0l5.6-5.6c-.6-1-.8-2.1-.6-3.2Z"/>
</svg>